{"nbformat":4,"nbformat_minor":0,"metadata":{"colab":{"provenance":[],"gpuType":"T4","authorship_tag":"ABX9TyNOtk+A80KZiNheGuGKZZJx"},"kernelspec":{"name":"python3","display_name":"Python 3"},"language_info":{"name":"python"},"accelerator":"GPU"},"cells":[{"cell_type":"code","execution_count":1,"metadata":{"colab":{"base_uri":"https://localhost:8080/"},"id":"IkpmeRo8F9Co","executionInfo":{"status":"ok","timestamp":1707083588913,"user_tz":300,"elapsed":16750,"user":{"displayName":"Victor","userId":"11018773993955910152"}},"outputId":"41f9bbe7-a63a-40fa-fcfb-c8c1b00e6811"},"outputs":[{"output_type":"stream","name":"stdout","text":["Mounted at /content/drive\n"]}],"source":["from google.colab import drive\n","drive.mount('/content/drive')"]},{"cell_type":"code","source":["import os\n","os.chdir('/content/drive/MyDrive/CLEAN/app')\n","current_path = os.getcwd()\n","os.listdir(current_path)"],"metadata":{"colab":{"base_uri":"https://localhost:8080/"},"id":"B_JdIhN4GUAW","executionInfo":{"status":"ok","timestamp":1707083589154,"user_tz":300,"elapsed":243,"user":{"displayName":"Victor","userId":"11018773993955910152"}},"outputId":"8038e684-6eee-410f-de77-4dc67f6889ff"},"execution_count":2,"outputs":[{"output_type":"execute_result","data":{"text/plain":["['CLEAN_infer_fasta.py',\n"," 'DEMO.ipynb',\n"," 'build.py',\n"," 'data',\n"," 'gmm.py',\n"," 'inference.py',\n"," 'requirements.txt',\n"," 'results',\n"," 'src',\n"," 'train-supconH.py',\n"," 'train-triplet.py',\n"," 'esm',\n"," 'new-train-triplet.py',\n"," 'new-train-supconH.py']"]},"metadata":{},"execution_count":2}]},{"cell_type":"code","source":["!pip install fair-esm  # latest release"],"metadata":{"colab":{"base_uri":"https://localhost:8080/"},"id":"5zRgshrMGVaW","executionInfo":{"status":"ok","timestamp":1707083595280,"user_tz":300,"elapsed":6127,"user":{"displayName":"Victor","userId":"11018773993955910152"}},"outputId":"a72530f4-091f-4778-c191-c5bba415285c"},"execution_count":3,"outputs":[{"output_type":"stream","name":"stdout","text":["Collecting fair-esm\n","  Downloading fair_esm-2.0.0-py3-none-any.whl (93 kB)\n","\u001b[?25l     \u001b[90m━━━━━━━━━━━━━━━━━━━━━━━━━━━━━━━━━━━━━━━━\u001b[0m \u001b[32m0.0/93.1 kB\u001b[0m \u001b[31m?\u001b[0m eta \u001b[36m-:--:--\u001b[0m\r\u001b[2K     \u001b[90m━━━━━━━━━━━━━━━━━━━━━━━━━━━━━━━━━━━━━━━━\u001b[0m \u001b[32m93.1/93.1 kB\u001b[0m \u001b[31m2.6 MB/s\u001b[0m eta \u001b[36m0:00:00\u001b[0m\n","\u001b[?25hInstalling collected packages: fair-esm\n","Successfully installed fair-esm-2.0.0\n"]}]},{"cell_type":"code","source":["from src.CLEAN.utils import csv_to_fasta, retrive_esm1b_embedding\n","csv_to_fasta(\"data/new.csv\", \"data/new.fasta\")\n","retrive_esm1b_embedding(\"new\")"],"metadata":{"id":"T4r1lQRlGi2N","executionInfo":{"status":"ok","timestamp":1707084112307,"user_tz":300,"elapsed":156768,"user":{"displayName":"Victor","userId":"11018773993955910152"}}},"execution_count":9,"outputs":[]},{"cell_type":"code","source":["from src.CLEAN.infer import infer_pvalue\n","train_data = \"combined_columns\"\n","test_data = \"new\"\n","infer_pvalue(train_data, test_data, p_value=1e-1, nk_random=1, report_metrics=True, pretrained=False, model_name='combined_columns_triplet')"],"metadata":{"colab":{"base_uri":"https://localhost:8080/"},"id":"ZL__srwMGulg","executionInfo":{"status":"ok","timestamp":1707086366216,"user_tz":300,"elapsed":14565,"user":{"displayName":"Victor","userId":"11018773993955910152"}},"outputId":"3dc30580-f5f8-461f-ed0f-7d8282b94ac7"},"execution_count":19,"outputs":[{"output_type":"stream","name":"stdout","text":["The embedding sizes for train and test: torch.Size([5398, 128]) torch.Size([6, 128])\n"]},{"output_type":"stream","name":"stderr","text":["100%|██████████| 9/9 [00:00<00:00, 3949.03it/s]\n"]},{"output_type":"stream","name":"stdout","text":["Calculating eval distance map, between 6 test ids and 9 train EC cluster centers\n"]},{"output_type":"stream","name":"stderr","text":["6it [00:00, 4489.09it/s]\n","100%|██████████| 9/9 [00:00<00:00, 5516.40it/s]\n","1000it [00:00, 9461.87it/s]\n","100%|██████████| 6/6 [00:00<00:00, 675.19it/s]\n"]},{"output_type":"stream","name":"stdout","text":["############ EC calling results using random chosen 1k samples ############\n","---------------------------------------------------------------------------\n",">>> total samples: 6 | total ec: 5 \n",">>> precision: 0.833 | recall: 0.833| F1: 0.833 | AUC: 0.917 \n","---------------------------------------------------------------------------\n"]}]},{"cell_type":"code","source":["from src.CLEAN.infer import infer_maxsep\n","train_data = \"combined_columns\"\n","test_data = \"new\"\n","infer_maxsep(train_data, test_data, report_metrics=True, pretrained=False, model_name=\"combined_columns_triplet\")"],"metadata":{"colab":{"base_uri":"https://localhost:8080/"},"id":"67TpydvsNFtd","executionInfo":{"status":"ok","timestamp":1707086260597,"user_tz":300,"elapsed":1058838,"user":{"displayName":"Victor","userId":"11018773993955910152"}},"outputId":"09a60bbc-b950-4804-d44d-79d9c312637b"},"execution_count":17,"outputs":[{"output_type":"stream","name":"stdout","text":["The embedding sizes for train and test: torch.Size([5398, 128]) torch.Size([6, 128])\n"]},{"output_type":"stream","name":"stderr","text":["100%|██████████| 9/9 [00:00<00:00, 1048.34it/s]\n"]},{"output_type":"stream","name":"stdout","text":["Calculating eval distance map, between 6 test ids and 9 train EC cluster centers\n"]},{"output_type":"stream","name":"stderr","text":["6it [00:00, 88.98it/s]"]},{"output_type":"stream","name":"stdout","text":["############ EC calling results using maximum separation ############\n","---------------------------------------------------------------------------\n",">>> total samples: 6 | total ec: 5 \n",">>> precision: 0.75 | recall: 0.833| F1: 0.778 | AUC: 0.9 \n","---------------------------------------------------------------------------\n"]},{"output_type":"stream","name":"stderr","text":["\n"]}]}]}